name analog
datacolumns 19
datarows 26
range 0.4645 0.47700000000000004
endheader
time	ground_force_vx	ground_force_vy	ground_force_vz	ground_force_px	ground_force_py	ground_force_pz	l_ground_force_vx	l_ground_force_vy	l_ground_force_vz	l_ground_force_px	l_ground_force_py	l_ground_force_pz	ground_torque_x	ground_torque_y	ground_torque_z	l_ground_torque_x	l_ground_torque_y	l_ground_torque_z
0.4645	-0.0	-0.0	-0.0	-16.558988571166992	25.038530349731445	-396.1326599121094	19.32530403137207	-24.628162384033203	-386.5108642578125	-0.0	-0.0	-0.0	-0.0	-0.0	-0.0	99123.75	-6525.37646484375	-2157.986083984375
0.465	-0.0	-0.0	-0.0	-16.2915096282959	25.03826713562012	-396.62109375	20.362424850463867	-23.928606033325195	-385.8664245605469	-0.0	-0.0	-0.0	-0.0	-0.0	-0.0	99028.7109375	-6575.43896484375	-1951.792236328125
0.4655	-0.0	-0.0	-0.0	-15.90712833404541	24.318782806396484	-396.213134765625	21.01716423034668	-23.941570281982425	-384.1207580566406	-0.0	-0.0	-0.0	-0.0	-0.0	-0.0	98982.5703125	-6549.12646484375	-1739.16455078125
0.466	-0.0	-0.0	-0.0	-15.645590782165527	23.36783790588379	-394.2275695800781	21.37929916381836	-23.25598526000977	-382.83251953125	-0.0	-0.0	-0.0	-0.0	-0.0	-0.0	98466.796875	-6381.27490234375	-1752.15185546875
0.4665	-0.0	-0.0	-0.0	-15.235299110412598	23.94250869750977	-391.4105224609375	22.06140899658203	-22.651535034179688	-381.7312927246094	-0.0	-0.0	-0.0	-0.0	-0.0	-0.0	97873.8359375	-6196.39599609375	-1626.1962890625
0.467	-0.0	-0.0	-0.0	-15.767949104309082	23.586137771606445	-389.5906066894531	22.21110343933105	-22.48073387145996	-379.3101806640625	-0.0	-0.0	-0.0	-0.0	-0.0	-0.0	97501.7890625	-6305.1025390625	-1610.2645263671875
0.4675	-0.0	-0.0	-0.0	-15.282934188842772	23.427339553833008	-389.833984375	22.71554946899414	-21.997663497924805	-376.2544250488281	-0.0	-0.0	-0.0	-0.0	-0.0	-0.0	97142.828125	-6308.92138671875	-1466.133056640625
0.468	-0.0	-0.0	-0.0	-15.56982135772705	23.878124237060547	-389.1283874511719	22.934419631958008	-21.638813018798828	-375.0981750488281	-0.0	-0.0	-0.0	-0.0	-0.0	-0.0	96656.0546875	-6122.546875	-1508.4898681640625
0.4685	-0.0	-0.0	-0.0	-15.687005996704102	23.92904090881348	-390.2638549804688	23.050874710083008	-21.820571899414062	-376.1661376953125	-0.0	-0.0	-0.0	-0.0	-0.0	-0.0	96736.875	-6106.65283203125	-1627.046630859375
0.46900000000000003	-0.0	-0.0	-0.0	-16.02496910095215	24.051149368286133	-389.7613830566406	23.06480407714844	-21.37384796142578	-375.2281494140625	-0.0	-0.0	-0.0	-0.0	-0.0	-0.0	96544.6015625	-5870.11767578125	-1615.88037109375
0.46950000000000003	-0.0	-0.0	-0.0	-17.05786895751953	24.585893630981445	-394.6317138671875	22.892127990722656	-21.178546905517575	-373.6473083496094	-0.0	-0.0	-0.0	-0.0	-0.0	-0.0	96261.8203125	-5941.42529296875	-1725.238037109375
0.47000000000000003	-0.0	-0.0	-0.0	-17.602766036987305	24.73584747314453	-394.1488037109375	22.60721778869629	-20.913768768310547	-372.8386840820313	-0.0	-0.0	-0.0	-0.0	-0.0	-0.0	95892.15625	-5672.6875	-1804.9437255859373
0.47050000000000003	-0.0	-0.0	-0.0	-17.84210205078125	25.14893341064453	-395.8981628417969	22.976093292236328	-20.783586502075195	-373.0942993164063	-0.0	-0.0	-0.0	-0.0	-0.0	-0.0	95513.203125	-5606.2021484375	-1837.509765625
0.47100000000000003	-0.0	-0.0	-0.0	-19.512630462646484	25.096126556396484	-397.5118408203125	22.915571212768555	-20.9182071685791	-369.7352294921875	-0.0	-0.0	-0.0	-0.0	-0.0	-0.0	95143.0234375	-5414.6572265625	-1778.283935546875
0.47150000000000003	-0.0	-0.0	-0.0	-20.0581169128418	25.31675338745117	-397.2146301269531	22.84498786926269	-20.94631004333496	-369.91845703125	-0.0	-0.0	-0.0	-0.0	-0.0	-0.0	95300.640625	-5460.79736328125	-1818.79248046875
0.47200000000000003	-0.0	-0.0	-0.0	-20.521970748901367	25.79431533813477	-400.3364868164063	22.457988739013672	-21.49410057067871	-370.2269592285156	-0.0	-0.0	-0.0	-0.0	-0.0	-0.0	94665.265625	-4886.09765625	-1853.5869140625
0.47250000000000003	-0.0	-0.0	-0.0	-21.321311950683597	25.07424545288086	-401.8186340332031	22.30899810791016	-21.638813018798828	-369.5700378417969	-0.0	-0.0	-0.0	-0.0	-0.0	-0.0	94926.4765625	-4710.82373046875	-1986.615478515625
0.47300000000000003	-0.0	-0.0	-0.0	-21.899629592895508	25.758686065673828	-404.8133239746094	22.24123954772949	-22.02373313903809	-371.9715270996094	-0.0	-0.0	-0.0	-0.0	-0.0	-0.0	95160.703125	-4744.25244140625	-2110.20263671875
0.47350000000000003	-0.0	-0.0	-0.0	-22.31993293762207	25.982973098754883	-405.6899108886719	21.436355590820312	-21.93218040466309	-373.4237976074219	-0.0	-0.0	-0.0	-0.0	-0.0	-0.0	95531.5546875	-4467.45703125	-2215.128173828125
0.47400000000000003	-0.0	-0.0	-0.0	-22.748680114746094	25.908138275146484	-408.2296752929688	21.053056716918945	-22.462182998657227	-375.3380126953125	-0.0	-0.0	-0.0	-0.0	-0.0	-0.0	95836.875	-4548.36376953125	-2512.17578125
0.47450000000000003	-0.0	-0.0	-0.0	-23.16582298278809	25.920026779174805	-411.1112976074219	19.54236221313477	-22.86104202270508	-375.2251586914063	-0.0	-0.0	-0.0	-0.0	-0.0	-0.0	96067.546875	-4224.69775390625	-2859.7314453125
0.47500000000000003	-0.0	-0.0	-0.0	-23.16349220275879	25.727474212646484	-412.62890625	18.909772872924805	-23.53895378112793	-376.56488037109375	-0.0	-0.0	-0.0	-0.0	-0.0	-0.0	96248.7109375	-4094.2216796875	-3043.119384765625
0.47550000000000003	-0.0	-0.0	-0.0	-23.729995727539062	25.84781646728516	-413.9268798828125	17.78765869140625	-24.03783798217773	-378.8861999511719	-0.0	-0.0	-0.0	-0.0	-0.0	-0.0	97070.171875	-4077.114990234375	-3350.3076171875
0.47600000000000003	-0.0	-0.0	-0.0	-24.25069999694824	25.81686782836914	-415.0440673828125	16.394987106323242	-24.968341827392575	-382.8488464355469	-0.0	-0.0	-0.0	-0.0	-0.0	-0.0	97905.9296875	-3871.823974609375	-3713.035888671875
0.47650000000000003	-0.0	-0.0	-0.0	-24.085203170776367	25.744102478027344	-418.1072692871094	15.64389705657959	-25.15726661682129	-386.7957763671875	-0.0	-0.0	-0.0	-0.0	-0.0	-0.0	98832.65625	-3767.650390625	-4005.36669921875
0.47700000000000004	-0.0	-0.0	-0.0	-24.339845657348636	25.63887023925781	-419.4040832519531	14.577580451965332	-25.982685089111328	-391.5197448730469	-0.0	-0.0	-0.0	-0.0	-0.0	-0.0	99839.515625	-3611.785400390625	-4109.83251953125
